<svg width="33" height="29" viewBox="0 0 33 29" fill="none" xmlns="http://www.w3.org/2000/svg">
<rect x="21.7442" y="5.19798" width="6" height="14" fill="#5EC2D0"/>
<path fill-rule="evenodd" clip-rule="evenodd" d="M0.744156 0.197983H32.7442V24.198H0.744156V0.197983ZM2.74416 2.19798V22.198H30.7442V2.19798H2.74416Z" fill="#294460"/>
<rect x="1.74416" y="26.198" width="30" height="2" fill="#294460"/>
<path fill-rule="evenodd" clip-rule="evenodd" d="M5.74416 5.19798H11.7442V11.198H5.74416V5.19798ZM7.74416 7.19798V9.19798H9.74416V7.19798H7.74416Z" fill="#294460"/>
<path fill-rule="evenodd" clip-rule="evenodd" d="M5.74416 13.198H11.7442V19.198H5.74416V13.198ZM7.74416 15.198V17.198H9.74416V15.198H7.74416Z" fill="#294460"/>
<path fill-rule="evenodd" clip-rule="evenodd" d="M13.7442 5.19798H19.7442V11.198H13.7442V5.19798ZM15.7442 7.19798V9.19798H17.7442V7.19798H15.7442Z" fill="#294460"/>
<path fill-rule="evenodd" clip-rule="evenodd" d="M13.7442 13.198H19.7442V19.198H13.7442V13.198ZM15.7442 15.198V17.198H17.7442V15.198H15.7442Z" fill="#294460"/>
</svg>
