<svg width="33" height="33" viewBox="0 0 33 33" fill="none" xmlns="http://www.w3.org/2000/svg">
<path d="M17.4644 1.32461L16.8616 0.987045L16.3326 1.43141C15.3437 2.2621 14.0144 4.0422 12.934 6.5228C11.8426 9.02866 10.9758 12.3141 10.9758 16.1971C10.9758 20.0802 11.8426 23.3656 12.934 25.8714C14.0144 28.352 15.3437 30.1321 16.3326 30.9628L16.8616 31.4072L17.4644 31.0696C18.0774 30.7263 18.7026 30.0546 19.2765 29.2435C19.8703 28.4043 20.4765 27.3193 21.0211 26.0384C22.1106 23.476 22.9758 20.0767 22.9758 16.1971C22.9758 12.3176 22.1106 8.91828 21.0211 6.35584C20.4765 5.07494 19.8703 3.98995 19.2765 3.15077C18.7026 2.3396 18.0774 1.66788 17.4644 1.32461Z" fill="#5EC2D0"/>
<path fill-rule="evenodd" clip-rule="evenodd" d="M16.9758 2.19798C9.24384 2.19798 2.97583 8.466 2.97583 16.198C2.97583 23.93 9.24384 30.198 16.9758 30.198C24.7078 30.198 30.9758 23.93 30.9758 16.198C30.9758 8.466 24.7078 2.19798 16.9758 2.19798ZM0.97583 16.198C0.97583 7.36143 8.13927 0.197983 16.9758 0.197983C25.8124 0.197983 32.9758 7.36143 32.9758 16.198C32.9758 25.0345 25.8124 32.198 16.9758 32.198C8.13927 32.198 0.97583 25.0345 0.97583 16.198Z" fill="#294460"/>
<path fill-rule="evenodd" clip-rule="evenodd" d="M1.97583 11.198C1.97583 10.6457 2.42355 10.198 2.97583 10.198H30.9758C31.5281 10.198 31.9758 10.6457 31.9758 11.198C31.9758 11.7503 31.5281 12.198 30.9758 12.198H2.97583C2.42355 12.198 1.97583 11.7503 1.97583 11.198Z" fill="#294460"/>
<path fill-rule="evenodd" clip-rule="evenodd" d="M1.97583 21.198C1.97583 20.6457 2.42355 20.198 2.97583 20.198H30.9758C31.5281 20.198 31.9758 20.6457 31.9758 21.198C31.9758 21.7503 31.5281 22.198 30.9758 22.198H2.97583C2.42355 22.198 1.97583 21.7503 1.97583 21.198Z" fill="#294460"/>
</svg>
