<svg width="30" height="32" viewBox="0 0 30 32" fill="none" xmlns="http://www.w3.org/2000/svg">
<path fill-rule="evenodd" clip-rule="evenodd" d="M0 0.297127H30V31.2971H0V0.297127ZM2 2.29713V29.2971H28V2.29713H2Z" fill="#294460"/>
<path d="M13.3271 20.1656C13.3452 19.091 13.4671 18.2421 13.6928 17.619C13.9186 16.9959 14.3792 16.3051 15.0745 15.5465L16.849 13.7179C17.6075 12.86 17.9868 11.9389 17.9868 10.9545C17.9868 10.0063 17.7385 9.26585 17.2418 8.73305C16.7451 8.19122 16.0227 7.92031 15.0745 7.92031C14.1534 7.92031 13.4129 8.16413 12.853 8.65178C12.2931 9.13942 12.0132 9.79413 12.0132 10.6159H9.50722C9.52528 9.15297 10.0445 7.97449 11.065 7.08048C12.0944 6.17743 13.431 5.72591 15.0745 5.72591C16.7813 5.72591 18.1087 6.18646 19.0569 7.10757C20.0142 8.01964 20.4928 9.27488 20.4928 10.8733C20.4928 12.4536 19.7613 14.0114 18.2984 15.5465L16.8219 17.0095C16.1627 17.7409 15.8331 18.793 15.8331 20.1656H13.3271ZM13.2187 24.4596C13.2187 24.0532 13.3407 23.7146 13.5845 23.4437C13.8373 23.1637 14.2076 23.0238 14.6952 23.0238C15.1829 23.0238 15.5531 23.1637 15.806 23.4437C16.0588 23.7146 16.1852 24.0532 16.1852 24.4596C16.1852 24.866 16.0588 25.2046 15.806 25.4755C15.5531 25.7374 15.1829 25.8684 14.6952 25.8684C14.2076 25.8684 13.8373 25.7374 13.5845 25.4755C13.3407 25.2046 13.2187 24.866 13.2187 24.4596Z" fill="#294460"/>
</svg>
