<svg width="30" height="32" viewBox="0 0 30 32" fill="none" xmlns="http://www.w3.org/2000/svg">
<path fill-rule="evenodd" clip-rule="evenodd" d="M-2.28882e-05 0.697983H30V31.698H-2.28882e-05V0.697983ZM1.99998 2.69798V29.698H28V2.69798H1.99998Z" fill="#294460"/>
<path fill-rule="evenodd" clip-rule="evenodd" d="M3.99998 4.69798H26V11.698H3.99998V4.69798ZM5.99998 6.69798V9.69798H24V6.69798H5.99998Z" fill="#294460"/>
<path fill-rule="evenodd" clip-rule="evenodd" d="M3.99998 13.698H9.99998V19.698H3.99998V13.698ZM5.99998 15.698V17.698H7.99998V15.698H5.99998Z" fill="#294460"/>
<path fill-rule="evenodd" clip-rule="evenodd" d="M12 13.698H18V19.698H12V13.698ZM14 15.698V17.698H16V15.698H14Z" fill="#294460"/>
<path fill-rule="evenodd" clip-rule="evenodd" d="M3.99998 21.698H9.99998V27.698H3.99998V21.698ZM5.99998 23.698V25.698H7.99998V23.698H5.99998Z" fill="#294460"/>
<path fill-rule="evenodd" clip-rule="evenodd" d="M12 21.698H18V27.698H12V21.698ZM14 23.698V25.698H16V23.698H14Z" fill="#294460"/>
<path d="M26 13.698H20V27.698H26V13.698Z" fill="#5EC2D0"/>
</svg>
